<?xml version="1.0" encoding="UTF-8" standalone="no"?>
<svg
   xmlns:dc="http://purl.org/dc/elements/1.1/"
   xmlns:cc="http://creativecommons.org/ns#"
   xmlns:rdf="http://www.w3.org/1999/02/22-rdf-syntax-ns#"
   xmlns:svg="http://www.w3.org/2000/svg"
   xmlns="http://www.w3.org/2000/svg"
   xmlns:sodipodi="http://sodipodi.sourceforge.net/DTD/sodipodi-0.dtd"
   xmlns:inkscape="http://www.inkscape.org/namespaces/inkscape"
   aria-hidden="true"
   focusable="false"
   data-prefix="fas"
   data-icon="sync-alt"
   class="svg-inline--fa fa-sync-alt fa-w-16"
   role="img"
   viewBox="0 0 512 512"
   version="1.1"
   id="svg4"
   sodipodi:docname="icon-11.svg"
   inkscape:version="0.92.5 (2060ec1f9f, 2020-04-08)"
   width="512"
   height="512">
  <metadata
     id="metadata10">
    <rdf:RDF>
      <cc:Work
         rdf:about="">
        <dc:format>image/svg+xml</dc:format>
        <dc:type
           rdf:resource="http://purl.org/dc/dcmitype/StillImage" />
        <dc:title />
      </cc:Work>
    </rdf:RDF>
  </metadata>
  <defs
     id="defs8" />
  <sodipodi:namedview
     pagecolor="#ffffff"
     bordercolor="#666666"
     borderopacity="1"
     objecttolerance="10"
     gridtolerance="10"
     guidetolerance="10"
     inkscape:pageopacity="0"
     inkscape:pageshadow="2"
     inkscape:window-width="1440"
     inkscape:window-height="839"
     id="namedview6"
     showgrid="false"
     inkscape:zoom="0.25000001"
     inkscape:cx="145.05659"
     inkscape:cy="386.52622"
     inkscape:window-x="0"
     inkscape:window-y="29"
     inkscape:window-maximized="1"
     inkscape:current-layer="g975"
     showguides="true"
     inkscape:guide-bbox="true">
    <sodipodi:guide
       position="-651.40693,-1069.9184"
       orientation="0,1"
       id="guide375"
       inkscape:locked="false" />
  </sodipodi:namedview>
  <g
     id="g868">
    <g
       id="g4756"
       transform="matrix(1.1143685,0,0,1.1143685,506.1318,9.4896368)"
       style="fill:#336699;fill-opacity:1;stroke:#336699;stroke-opacity:1">
      <g
         id="g4754"
         transform="translate(-886,576)"
         style="fill:#336699;fill-opacity:1;stroke:#336699;stroke-opacity:1" />
    </g>
    <path
       cx="256"
       cy="256"
       r="68.754761"
       id="path1673"
       style="font-style:normal;font-weight:normal;font-size:57.8261528px;line-height:1.25;font-family:sans-serif;letter-spacing:0px;word-spacing:0px;opacity:1;fill:#ffffff;fill-opacity:1;stroke:none;stroke-width:0.49829954;stroke-opacity:1"
       d=""
       inkscape:connector-curvature="0" />
    <path
       cx="129.7975"
       cy="934.25262"
       r="244.80794"
       id="path853"
       style="opacity:1;fill:#000000;fill-opacity:1;stroke:none;stroke-width:7.37007856;stroke-miterlimit:4;stroke-dasharray:none;stroke-dashoffset:0;stroke-opacity:1"
       d=""
       inkscape:connector-curvature="0" />
    <g
       transform="translate(452.54834,766.50375)"
       id="g1233">
      <g
         id="g1248"
         transform="translate(-4.0000023e-5,428)">
        <g
           id="g1272"
           transform="translate(-1158.9649,-1366.9843)">
          <flowRoot
             xml:space="preserve"
             id="flowRoot1284"
             style="font-style:normal;font-weight:normal;font-size:40px;line-height:1.25;font-family:sans-serif;letter-spacing:0px;word-spacing:0px;fill:#000000;fill-opacity:1;stroke:none"><flowRegion
               id="flowRegion1286"><rect
                 id="rect1288"
                 width="1376.89"
                 height="792.45465"
                 x="-356.60458"
                 y="-52.62394" /></flowRegion><flowPara
               id="flowPara1290" /></flowRoot>          <g
             id="g1303"
             transform="translate(-104.00967,1258.0218)">
            <g
               id="g1329"
               transform="matrix(2.3189152,0,0,2.3189152,-807.38574,-1929.4954)">
              <g
                 id="g1493"
                 transform="matrix(1.272264,0,0,1.272264,141.8104,1643.8578)">
                <g
                   id="g82">
                  <g
                     id="g558"
                     transform="matrix(0.93996311,0,0,0.93996311,314.00073,-318.09371)">
                    <g
                       id="g733"
                       transform="matrix(1.3722633,0,0,1.4699212,242.64115,222.84347)" />
                    <g
                       id="g975"
                       transform="translate(36.060113,-5.7696178)">
                      <g
                         id="g1037">
                        <g
                           style="font-style:normal;font-weight:normal;font-size:200.49349976px;line-height:1.25;font-family:sans-serif;letter-spacing:0px;word-spacing:0px;fill:#0086ff;fill-opacity:1;stroke:none;stroke-width:5.01233721"
                           id="g944"
                           transform="translate(1.2736569e-6,-7.0518793e-6)" />
                      </g>
                      <g
                         id="g853"
                         transform="matrix(1.0254881,0,0,1.0254881,-207.27297,-8.9921671)">
                        <path
                           sodipodi:nodetypes="ccccccccccccccccccccscccccc"
                           inkscape:connector-curvature="0"
                           id="path858-3"
                           d="m 400.76248,-683.68686 c 1.27824,14.45218 -9.65526,25.86033 -19.22515,35.17792 -3.36532,3.24879 -2.69418,-7.35499 -2.64885,-10.15294 2.30133,-12.58184 8.73359,-24.78242 18.5017,-33.14203 1.69669,2.45549 3.08933,5.08424 3.3723,8.11705 z m -18.71017,51.40332 c 10.20037,-10.12863 23.55334,-27.89016 22.15528,-43.03205 -0.29418,-8.41735 -2.14779,-17.16554 -7.39594,-23.95738 -9.15445,1.66729 -14.26729,11.01006 -18.42846,18.46697 -4.64582,11.26527 -3.16488,23.83414 -0.876,35.46353 -11.02263,11.12716 -24.01363,21.82211 -28.51176,37.4907 -5.21876,17.20705 3.54698,37.97479 20.7384,44.45548 6.61035,2.5028 13.92722,3.0315 20.85455,1.67949 1.07195,10.75162 5.23889,22.72061 -1.0222,32.67551 -3.58679,6.55124 -15.75497,12.07773 -20.43,4.3731 -0.37506,-6.55602 6.72868,-9.79537 10.3744,-14.15853 -3.90734,-2.01729 -11.12301,0.46722 -15.0762,3.48427 -6.90466,4.06514 -3.1651,13.12876 3.38167,14.8958 10.24239,3.87719 23.91691,-1.81853 26.10493,-13.15622 2.49525,-9.48617 -0.46149,-19.13283 -1.25839,-28.62532 30.31548,-12.01711 22.03952,-42.36791 10.20352,-58.53894 -9.3365,-12.75603 -24.80926,-7.95728 -20.8138,-11.51641 z m 1.325,68.24404 c -12.26108,0.85256 -23.67074,-8.73229 -25.6968,-20.72672 -2.95629,-10.52471 0.24011,-21.9893 7.37287,-30.11301 10.96296,-15.97497 41.50466,-10.60199 32.5603,-8.3748 14.02489,8.87658 46.31461,52.44283 -14.23637,59.21453 z"
                           style="fill:#0086ff;fill-opacity:1;stroke-width:4.41584063" />
                        <path
                           inkscape:connector-curvature="0"
                           id="path911-6"
                           d="m 384.90819,-558.92851 c -15.86222,0.66415 -31.01472,-10.57686 -35.03715,-25.91585 -4.82441,-16.17726 1.7962,-35.68308 17.19989,-43.58995 15.99876,-8.87458 38.52673,-4.04887 48.30621,11.78491 11.47753,16.85747 6.19969,42.70462 -11.72679,52.89751 -5.6233,3.37066 -12.22369,4.85019 -18.74216,4.82338 z m 0,-8.40643 c 12.01264,0.56316 22.87394,-8.53483 25.64505,-20.01423 3.85363,-13.41036 -2.09653,-30.00589 -15.69096,-35.21532 -11.851,-4.84156 -26.89973,-0.0899 -32.94147,11.43392 -7.68056,13.76971 -3.59903,34.21756 11.27244,41.33928 3.64447,1.7248 7.69849,2.46448 11.71494,2.45635 z"
                           style="font-style:normal;font-variant:normal;font-weight:300;font-stretch:normal;font-size:253.95843506px;line-height:1.25;font-family:MuseoModerno;-inkscape-font-specification:'MuseoModerno Light';letter-spacing:0px;word-spacing:0px;fill:#0086ff;fill-opacity:1;stroke:none;stroke-width:2.71993589" />
                        <path
                           inkscape:connector-curvature="0"
                           id="path919-6-7"
                           d="m 384.90819,-588.97109 c -11.77881,-0.0598 -5.94968,-19.11299 3.79839,-12.61831 5.73008,3.47214 2.77495,12.81556 -3.79839,12.61831 z"
                           style="font-style:normal;font-variant:normal;font-weight:300;font-stretch:normal;font-size:253.95843506px;line-height:1.25;font-family:MuseoModerno;-inkscape-font-specification:'MuseoModerno Light';letter-spacing:0px;word-spacing:0px;fill:#0086ff;fill-opacity:1;stroke:none;stroke-width:2.71993589" />
                      </g>
                    </g>
                  </g>
                </g>
              </g>
            </g>
          </g>
        </g>
      </g>
    </g>
  </g>
</svg>
