<?xml version="1.0" encoding="UTF-8" standalone="no"?>
<svg
   xmlns:dc="http://purl.org/dc/elements/1.1/"
   xmlns:cc="http://creativecommons.org/ns#"
   xmlns:rdf="http://www.w3.org/1999/02/22-rdf-syntax-ns#"
   xmlns:svg="http://www.w3.org/2000/svg"
   xmlns="http://www.w3.org/2000/svg"
   xmlns:sodipodi="http://sodipodi.sourceforge.net/DTD/sodipodi-0.dtd"
   xmlns:inkscape="http://www.inkscape.org/namespaces/inkscape"
   aria-hidden="true"
   focusable="false"
   data-prefix="fas"
   data-icon="sync-alt"
   class="svg-inline--fa fa-sync-alt fa-w-16"
   role="img"
   viewBox="0 0 2146 512"
   version="1.1"
   id="svg4"
   sodipodi:docname="logo-11c.svg"
   inkscape:version="0.92.5 (2060ec1f9f, 2020-04-08)"
   width="2146"
   height="512">
  <metadata
     id="metadata10">
    <rdf:RDF>
      <cc:Work
         rdf:about="">
        <dc:format>image/svg+xml</dc:format>
        <dc:type
           rdf:resource="http://purl.org/dc/dcmitype/StillImage" />
        <dc:title></dc:title>
      </cc:Work>
    </rdf:RDF>
  </metadata>
  <defs
     id="defs8" />
  <sodipodi:namedview
     pagecolor="#ffffff"
     bordercolor="#666666"
     borderopacity="1"
     objecttolerance="10"
     gridtolerance="10"
     guidetolerance="10"
     inkscape:pageopacity="0"
     inkscape:pageshadow="2"
     inkscape:window-width="1440"
     inkscape:window-height="839"
     id="namedview6"
     showgrid="false"
     inkscape:zoom="0.7071068"
     inkscape:cx="506.45014"
     inkscape:cy="151.27563"
     inkscape:window-x="0"
     inkscape:window-y="29"
     inkscape:window-maximized="1"
     inkscape:current-layer="g899"
     showguides="true"
     inkscape:guide-bbox="true">
    <sodipodi:guide
       position="-651.40693,-1069.9184"
       orientation="0,1"
       id="guide375"
       inkscape:locked="false" />
  </sodipodi:namedview>
  <g
     id="g868">
    <g
       id="g4756"
       transform="matrix(1.1143685,0,0,1.1143685,506.1318,9.4896368)"
       style="fill:#336699;fill-opacity:1;stroke:#336699;stroke-opacity:1">
      <g
         id="g4754"
         transform="translate(-886,576)"
         style="fill:#336699;fill-opacity:1;stroke:#336699;stroke-opacity:1" />
    </g>
    <path
       cx="256"
       cy="256"
       r="68.754761"
       id="path1673"
       style="font-style:normal;font-weight:normal;font-size:57.8261528px;line-height:1.25;font-family:sans-serif;letter-spacing:0px;word-spacing:0px;opacity:1;fill:#ffffff;fill-opacity:1;stroke:none;stroke-width:0.49829954;stroke-opacity:1"
       d=""
       inkscape:connector-curvature="0" />
    <path
       cx="129.7975"
       cy="934.25262"
       r="244.80794"
       id="path853"
       style="opacity:1;fill:#000000;fill-opacity:1;stroke:none;stroke-width:7.37007856;stroke-miterlimit:4;stroke-dasharray:none;stroke-dashoffset:0;stroke-opacity:1"
       d=""
       inkscape:connector-curvature="0" />
    <g
       transform="translate(452.54834,766.50375)"
       id="g1233">
      <g
         id="g1248"
         transform="translate(-4.0000023e-5,428)">
        <g
           id="g1272"
           transform="translate(-1158.9649,-1366.9843)">
          <flowRoot
             xml:space="preserve"
             id="flowRoot1284"
             style="font-style:normal;font-weight:normal;font-size:40px;line-height:1.25;font-family:sans-serif;letter-spacing:0px;word-spacing:0px;fill:#000000;fill-opacity:1;stroke:none"><flowRegion
               id="flowRegion1286"><rect
                 id="rect1288"
                 width="1376.89"
                 height="792.45465"
                 x="-356.60458"
                 y="-52.62394" /></flowRegion><flowPara
               id="flowPara1290" /></flowRoot>          <g
             id="g1303"
             transform="translate(-104.00967,1258.0218)">
            <g
               id="g1329"
               transform="matrix(2.3189152,0,0,2.3189152,-807.38574,-1929.4954)">
              <g
                 id="g1493"
                 transform="matrix(1.272264,0,0,1.272264,141.8104,1643.8578)">
                <g
                   id="g82">
                  <g
                     id="g558"
                     transform="matrix(0.93996311,0,0,0.93996311,314.00073,-318.09371)">
                    <g
                       id="g733"
                       transform="matrix(1.3722633,0,0,1.4699212,242.64115,222.84347)" />
                    <g
                       id="g975"
                       transform="translate(36.060113,-5.7696178)">
                      <g
                         id="g1037">
                        <g
                           style="font-style:normal;font-weight:normal;font-size:200.49349976px;line-height:1.25;font-family:sans-serif;letter-spacing:0px;word-spacing:0px;fill:#0086ff;fill-opacity:1;stroke:none;stroke-width:5.01233721"
                           id="g944"
                           transform="translate(1.2736569e-6,-7.0518793e-6)" />
                      </g>
                      <g
                         id="g1118"
                         transform="matrix(0.54264823,0,0,0.54264823,167.58659,-33.260132)">
                        <path
                           transform="translate(1.2736569e-6,-7.0518793e-6)"
                           id="path907"
                           style="font-style:normal;font-variant:normal;font-weight:300;font-stretch:normal;font-size:253.95843506px;line-height:1.25;font-family:MuseoModerno;-inkscape-font-specification:'MuseoModerno Light';letter-spacing:0px;word-spacing:0px;fill:#0086ff;fill-opacity:1;stroke:none;stroke-width:5.01233721"
                           d="m -130.53298,-1014.7814 v -15.4914 h 60.950026 q 7.872711,0 13.205839,-3.3015 5.333127,-3.3015 8.126669,-8.6346 3.047502,-5.3331 3.047502,-10.9202 0,-5.5871 -2.539585,-10.1583 -2.539584,-4.8252 -7.364794,-7.8727 -4.825211,-3.0475 -12.190005,-3.0475 h -27.173553 q -12.443959,0 -21.586469,-4.0634 -8.88854,-4.3173 -13.71375,-12.19 -4.57126,-7.8727 -4.57126,-18.285 0,-9.3965 4.57126,-17.5231 4.57125,-8.1267 12.95188,-12.9519 8.38063,-5.0792 19.554796,-5.0792 h 58.664399 v 15.4915 h -56.886689 q -9.904376,0 -15.491466,6.095 -5.58708,5.841 -5.58708,13.4598 0,7.3648 5.58708,13.2058 5.58709,5.8411 16.761258,5.8411 h 25.395843 q 13.713756,0 22.856259,4.5712 9.396462,4.5713 13.967714,12.6979 4.825211,8.1267 4.825211,19.0469 0,9.9044 -5.079169,19.0469 -5.079169,8.8886 -13.967714,14.4756 -8.634587,5.5871 -20.316675,5.5871 z"
                           inkscape:connector-curvature="0" />
                        <path
                           transform="translate(1.2736569e-6,-7.0518793e-6)"
                           id="path909"
                           style="font-style:normal;font-variant:normal;font-weight:300;font-stretch:normal;font-size:253.95843506px;line-height:1.25;font-family:MuseoModerno;-inkscape-font-specification:'MuseoModerno Light';letter-spacing:0px;word-spacing:0px;fill:#0086ff;fill-opacity:1;stroke:none;stroke-width:5.01233721"
                           d="m 67.808403,-1014.7814 q -20.062716,0 -35.808139,-8.6346 -15.745423,-8.6345 -24.887927,-23.1102 -9.1425036,-14.7296 -9.1425036,-33.0146 0,-18.285 9.1425036,-32.7606 9.142504,-14.7296 24.887927,-23.3642 15.745423,-8.6346 35.808139,-8.6346 h 14.729589 v 15.4915 H 66.538611 q -13.967714,0 -25.395844,6.6029 -11.428129,6.349 -18.285007,17.5231 -6.856878,11.1742 -6.856878,25.1419 0,13.9677 6.856878,25.1419 6.856878,11.1742 18.285007,17.7771 11.42813,6.349 25.395844,6.349 h 15.999381 v 15.4914 z"
                           inkscape:connector-curvature="0" />
                        <path
                           transform="translate(1.2736569e-6,-7.0518793e-6)"
                           id="path913"
                           style="font-style:normal;font-variant:normal;font-weight:300;font-stretch:normal;font-size:253.95843506px;line-height:1.25;font-family:MuseoModerno;-inkscape-font-specification:'MuseoModerno Light';letter-spacing:0px;word-spacing:0px;fill:#0086ff;fill-opacity:1;stroke:none;stroke-width:5.01233721"
                           d="m 269.9587,-1014.7814 v -92.6948 q 0,-17.2692 9.65042,-26.9196 9.90438,-9.9044 27.17356,-9.9044 h 22.34834 v 15.4915 h -18.79293 q -11.17417,0 -17.01521,6.095 -5.58709,6.095 -5.58709,17.2692 v 90.6631 z"
                           inkscape:connector-curvature="0" />
                        <path
                           transform="translate(1.2736569e-6,-7.0518793e-6)"
                           id="path915"
                           style="font-style:normal;font-variant:normal;font-weight:300;font-stretch:normal;font-size:253.95843506px;line-height:1.25;font-family:MuseoModerno;-inkscape-font-specification:'MuseoModerno Light';letter-spacing:0px;word-spacing:0px;fill:#0086ff;fill-opacity:1;stroke:none;stroke-width:5.01233721"
                           d="m 417.7623,-1014.7814 q -20.82459,0 -37.33189,-7.6187 -16.25334,-7.8727 -25.90376,-22.3484 -9.39646,-14.4756 -9.39646,-34.7923 0,-18.7929 7.61875,-34.0304 7.61875,-15.4915 21.33251,-24.634 13.96771,-9.1425 32.50668,-9.1425 19.04688,0 32.25272,8.3807 13.20584,8.3806 20.06272,22.6023 6.85687,14.2216 6.85687,31.9987 0,2.5396 -0.25395,5.5871 -0.25396,3.0475 -0.76188,5.3331 h -100.8215 q 0.76188,14.2217 8.12667,23.8721 7.3648,9.6504 19.04688,14.4757 11.93605,4.8252 25.64981,4.8252 h 32.76063 v 15.4914 z m -53.83919,-71.3623 h 83.80629 q 0,-5.0792 -1.01584,-11.1742 -1.01583,-6.3489 -3.80937,-12.4439 -2.53959,-6.095 -7.3648,-11.1742 -4.57125,-5.0792 -11.93605,-8.1267 -7.11083,-3.3014 -17.52313,-3.3014 -9.65042,0 -17.52313,4.0633 -7.87271,4.0633 -13.20584,10.9202 -5.33313,6.6029 -8.38063,14.7296 -2.79354,8.1267 -3.0475,16.5073 z"
                           inkscape:connector-curvature="0" />
                        <path
                           transform="translate(1.2736569e-6,-7.0518793e-6)"
                           id="path917"
                           style="font-style:normal;font-variant:normal;font-weight:300;font-stretch:normal;font-size:253.95843506px;line-height:1.25;font-family:MuseoModerno;-inkscape-font-specification:'MuseoModerno Light';letter-spacing:0px;word-spacing:0px;fill:#0086ff;fill-opacity:1;stroke:none;stroke-width:5.01233721"
                           d="m 616.61176,-1011.7339 q -12.95188,0 -23.36418,-5.841 -10.41229,-6.095 -16.50729,-16.7613 -5.84105,-10.9202 -5.84105,-24.8879 v -91.679 q 0,-8.1267 -3.80937,-14.4756 -3.80938,-6.6029 -10.15834,-10.1584 -6.095,-3.8093 -13.71376,-3.8093 -7.61875,0 -13.96771,3.8093 -6.34896,3.5555 -10.15834,10.1584 -3.80938,6.3489 -3.80938,14.4756 v 136.1217 h -18.285 v -133.3282 q 0,-13.9677 5.84104,-24.6339 5.84105,-10.6663 16.25334,-16.7613 10.4123,-6.3489 24.12605,-6.3489 13.4598,0 23.8721,6.3489 10.41229,6.095 16.25334,16.7613 6.095,10.6662 6.095,24.6339 v 91.679 q 0,8.1267 3.80937,14.7296 3.80938,6.349 9.90438,10.1584 6.09501,3.5554 13.4598,3.5554 7.36479,0 13.4598,-3.5554 6.095,-3.8094 9.65042,-10.1584 3.80937,-6.6029 3.80937,-14.7296 v -91.679 q 0,-13.9677 5.84105,-24.6339 5.84104,-10.6663 16.25334,-16.7613 10.66625,-6.3489 24.12605,-6.3489 13.71376,0 23.87209,6.3489 10.4123,6.095 16.25334,16.7613 5.84105,10.6662 5.84105,24.6339 v 133.3282 h -18.28501 v -136.1217 q 0,-8.1267 -3.80938,-14.4756 -3.55542,-6.6029 -9.90438,-10.1584 -6.095,-3.8093 -13.96771,-3.8093 -7.61875,0 -14.22167,3.8093 -6.34896,3.5555 -10.15834,10.1584 -3.55542,6.3489 -3.55542,14.4756 v 91.679 q 0,13.9677 -5.84104,24.8879 -5.84105,10.6663 -15.99938,16.7613 -10.15834,5.841 -23.36418,5.841 z"
                           inkscape:connector-curvature="0" />
                        <path
                           d="m 774.31946,-1144.3002 h 17.77709 v 129.5188 c -40.76076,0.029 -17.77709,-96.8975 -17.77709,-129.5188 z m 8.88855,-23.3641 c -3.38611,0 -6.34897,-1.2698 -8.88855,-3.8094 -2.53958,-2.5396 -3.80937,-5.5025 -3.80937,-8.8886 0,-3.5554 1.26979,-6.5182 3.80937,-8.8885 2.53959,-2.5396 5.50244,-3.8094 8.88855,-3.8094 3.55542,0 6.51827,1.2698 8.88854,3.8094 2.53959,2.3703 3.80938,5.3331 3.80938,8.8885 0,3.3861 -1.26979,6.349 -3.80938,8.8886 -2.37027,2.5396 -5.33312,3.8094 -8.88854,3.8094 z"
                           style="font-style:normal;font-variant:normal;font-weight:300;font-stretch:normal;font-size:253.95843506px;line-height:1.25;font-family:MuseoModerno;-inkscape-font-specification:'MuseoModerno Light';letter-spacing:0px;word-spacing:0px;fill:#0086ff;fill-opacity:1;stroke:none;stroke-width:5.01233721"
                           id="path919"
                           inkscape:connector-curvature="0"
                           sodipodi:nodetypes="ccccssscscscs"
                           transform="translate(1.2736569e-6,-7.0518793e-6)" />
                        <path
                           transform="translate(1.2736569e-6,-7.0518793e-6)"
                           id="path921"
                           style="font-style:normal;font-variant:normal;font-weight:300;font-stretch:normal;font-size:253.95843506px;line-height:1.25;font-family:MuseoModerno;-inkscape-font-specification:'MuseoModerno Light';letter-spacing:0px;word-spacing:0px;fill:#0086ff;fill-opacity:1;stroke:none;stroke-width:5.01233721"
                           d="m 831.20594,-1014.7814 v -75.4256 q 0,-17.7771 7.87271,-30.475 8.12667,-12.9519 21.58647,-19.8088 13.45979,-7.1108 29.71313,-7.1108 16.5073,0 29.71314,7.1108 13.4598,6.8569 21.33251,19.8088 8.12667,12.6979 8.12667,30.475 v 75.4256 h -17.77709 v -74.6638 q 0,-13.4597 -5.84105,-22.8562 -5.84104,-9.6504 -15.49146,-14.7296 -9.39646,-5.0792 -20.31668,-5.0792 -10.66625,0 -20.06271,5.0792 -9.39646,4.8252 -15.23751,14.4756 -5.84104,9.3965 -5.84104,23.1102 v 74.6638 z"
                           inkscape:connector-curvature="0" />
                        <path
                           transform="translate(1.2736569e-6,-7.0518793e-6)"
                           id="path923"
                           style="font-style:normal;font-variant:normal;font-weight:300;font-stretch:normal;font-size:253.95843506px;line-height:1.25;font-family:MuseoModerno;-inkscape-font-specification:'MuseoModerno Light';letter-spacing:0px;word-spacing:0px;fill:#0086ff;fill-opacity:1;stroke:none;stroke-width:5.01233721"
                           d="m 1032.5947,-1014.7814 q -17.2692,0 -27.1736,-9.9044 -9.65041,-9.9043 -9.65041,-26.9195 v -125.2016 h 17.77711 v 123.1699 q 0,11.1742 5.5871,17.2692 5.841,6.095 17.0152,6.095 h 24.8879 v 15.4914 z m -59.42631,-114.0273 v -15.4915 h 88.37751 v 15.4915 z"
                           inkscape:connector-curvature="0" />
                        <path
                           transform="translate(1.2736569e-6,-7.0518793e-6)"
                           id="path925"
                           style="font-style:normal;font-variant:normal;font-weight:300;font-stretch:normal;font-size:253.95843506px;line-height:1.25;font-family:MuseoModerno;-inkscape-font-specification:'MuseoModerno Light';letter-spacing:0px;word-spacing:0px;fill:#0086ff;fill-opacity:1;stroke:none;stroke-width:5.01233721"
                           d="m 1152.7168,-1014.7814 q -20.8246,0 -37.3319,-7.6187 -16.2533,-7.8727 -25.9037,-22.3484 -9.3965,-14.4756 -9.3965,-34.7923 0,-18.7929 7.6188,-34.0304 7.6187,-15.4915 21.3325,-24.634 13.9677,-9.1425 32.5067,-9.1425 19.0468,0 32.2527,8.3807 13.2058,8.3806 20.0627,22.6023 6.8569,14.2216 6.8569,31.9987 0,2.5396 -0.254,5.5871 -0.2539,3.0475 -0.7619,5.3331 h -100.8215 q 0.7619,14.2217 8.1267,23.8721 7.3648,9.6504 19.0469,14.4757 11.936,4.8252 25.6498,4.8252 h 32.7606 v 15.4914 z m -53.8392,-71.3623 h 83.8063 q 0,-5.0792 -1.0158,-11.1742 -1.0158,-6.3489 -3.8094,-12.4439 -2.5396,-6.095 -7.3648,-11.1742 -4.5712,-5.0792 -11.936,-8.1267 -7.1109,-3.3014 -17.5232,-3.3014 -9.6504,0 -17.5231,4.0633 -7.8727,4.0633 -13.2058,10.9202 -5.3332,6.6029 -8.3807,14.7296 -2.7935,8.1267 -3.0475,16.5073 z"
                           inkscape:connector-curvature="0" />
                        <path
                           transform="translate(1.2736569e-6,-7.0518793e-6)"
                           id="path927"
                           style="font-style:normal;font-variant:normal;font-weight:300;font-stretch:normal;font-size:253.95843506px;line-height:1.25;font-family:MuseoModerno;-inkscape-font-specification:'MuseoModerno Light';letter-spacing:0px;word-spacing:0px;fill:#0086ff;fill-opacity:1;stroke:none;stroke-width:5.01233721"
                           d="m 1231.9519,-1014.7814 v -92.6948 q 0,-17.2692 9.6504,-26.9196 9.9044,-9.9044 27.1735,-9.9044 h 22.3484 v 15.4915 h -18.7929 q -11.1742,0 -17.0153,6.095 -5.587,6.095 -5.587,17.2692 v 90.6631 z"
                           inkscape:connector-curvature="0" />
                        <g
                           id="g899">
                          <path
                             style="fill:#0086ff;fill-opacity:1;stroke-width:8.13757515"
                             d="m 200.13167,-1241.3864 c 2.35555,26.6327 -17.79287,47.6558 -35.42839,64.8264 -6.20166,5.9869 -4.96487,-13.5539 -4.88134,-18.71 4.24093,-23.186 16.09439,-45.6694 34.0952,-61.0746 3.12668,4.525 5.69305,9.3693 6.21453,14.9582 z m -34.47938,94.7268 c 18.79739,-18.6652 43.40444,-51.3964 40.82807,-79.3001 -0.54212,-15.5116 -3.95797,-31.6329 -13.62934,-44.149 -16.86996,3.0725 -26.29197,20.2895 -33.96024,34.0312 -8.56138,20.7598 -5.83229,43.9219 -1.6143,65.3527 -20.31266,20.5053 -44.25267,40.2141 -52.54187,69.0884 -9.617214,31.7094 6.53642,69.9805 38.217,81.9232 12.18165,4.6122 25.66529,5.5865 38.43107,3.095 1.9754,19.81325 9.6543,41.86986 -1.88372,60.2149 -6.60979,12.07272 -29.03348,22.25701 -37.64871,8.05881 -0.69115,-12.08152 12.39972,-18.05105 19.11811,-26.09155 -7.20051,-3.71749 -20.49765,0.861 -27.78264,6.42087 -12.72401,7.4913 -5.8327,24.19387 6.23178,27.4502 18.87482,7.14494 44.07442,-3.35121 48.10655,-24.24447 4.59827,-17.48126 -0.85044,-35.25826 -2.31899,-52.75116 55.86582,-22.1453 40.61475,-78.0762 18.8032,-107.8764 -17.20543,-23.507 -45.71887,-14.6638 -38.35597,-21.2226 z m 2.44172,125.7611 c -22.59488,1.5711 -43.62078,-16.092 -47.35443,-38.1955 -5.44789,-19.3951 0.44249,-40.5222 13.58683,-55.4927 20.20271,-29.4389 76.4854,-19.5375 60.0026,-15.4332 25.84527,16.3579 85.34922,96.6424 -26.235,109.1214 z"
                             id="path858"
                             inkscape:connector-curvature="0"
                             sodipodi:nodetypes="ccccccccccccccccccccscccccc" />
                          <path
                             style="font-style:normal;font-variant:normal;font-weight:300;font-stretch:normal;font-size:253.95843506px;line-height:1.25;font-family:MuseoModerno;-inkscape-font-specification:'MuseoModerno Light';letter-spacing:0px;word-spacing:0px;fill:#0086ff;fill-opacity:1;stroke:none;stroke-width:5.01233721"
                             d="m 170.91514,-1011.4799 c -29.23113,1.2239 -57.15437,-19.4912 -64.56695,-47.7581 -8.890501,-29.8117 3.31006,-65.7573 31.69619,-80.3282 29.48275,-16.3542 70.99762,-7.4613 89.01938,21.7174 21.15096,31.0652 11.42488,78.6967 -21.61028,97.4803 -10.3627,6.2115 -22.526,8.938 -34.53834,8.8886 z m 0,-15.4915 c 22.13708,1.0378 42.15243,-15.7281 47.25908,-36.8825 7.10151,-24.7128 -3.86352,-55.2953 -28.91554,-64.8953 -21.83918,-8.9221 -49.57121,-0.1657 -60.705,21.0706 -14.15386,25.375 -6.63235,63.0566 20.773,76.1806 6.71609,3.1785 14.18689,4.5416 21.58846,4.5266 z"
                             id="path911"
                             inkscape:connector-curvature="0" />
                          <path
                             style="font-style:normal;font-variant:normal;font-weight:300;font-stretch:normal;font-size:253.95843506px;line-height:1.25;font-family:MuseoModerno;-inkscape-font-specification:'MuseoModerno Light';letter-spacing:0px;word-spacing:0px;fill:#0086ff;fill-opacity:1;stroke:none;stroke-width:5.01233721"
                             d="m 170.91514,-1066.8428 c -21.70616,-0.1101 -10.96415,-35.2217 6.99973,-23.2532 10.55948,6.3985 5.11373,23.6167 -6.99973,23.2532 z"
                             id="path919-6"
                             inkscape:connector-curvature="0" />
                        </g>
                        <path
                           sodipodi:nodetypes="cccccccccc"
                           style="fill:#0086ff;fill-opacity:1;stroke-width:8.13757515"
                           inkscape:connector-curvature="0"
                           d="m 792.09655,-1014.7814 c -1.7897,18.31019 -8.3577,37.67419 -0.7527,55.44209 5.7023,13.0086 22.684,24.4511 35.2561,17.8368 4.8774,-2.5661 0.925,-0.4134 3.8901,-2.0448 9.1804,-15.6943 -33.7722,-33.3926 -11.9051,-30.2403 18.4071,0.3809 37.016,15.7314 25.1771,28.2977 -10.9596,12.3722 -31.1913,10.6779 -44.1879,2.5879 -14.7532,-9.602 -16.5942,-28.8331 -14.9092,-45.2614 0.5656,-5.5122 3.274,-21.72599 3.6093,-27.56039 z"
                           id="path1071" />
                      </g>
                    </g>
                  </g>
                </g>
              </g>
            </g>
          </g>
        </g>
      </g>
    </g>
  </g>
</svg>
