<?xml version="1.0" encoding="UTF-8" standalone="no"?>
<svg
   xmlns:dc="http://purl.org/dc/elements/1.1/"
   xmlns:cc="http://creativecommons.org/ns#"
   xmlns:rdf="http://www.w3.org/1999/02/22-rdf-syntax-ns#"
   xmlns:svg="http://www.w3.org/2000/svg"
   xmlns="http://www.w3.org/2000/svg"
   xmlns:sodipodi="http://sodipodi.sourceforge.net/DTD/sodipodi-0.dtd"
   xmlns:inkscape="http://www.inkscape.org/namespaces/inkscape"
   width="24"
   height="24"
   viewBox="0 0 24 24"
   fill="none"
   version="1.1"
   id="svg865"
   sodipodi:docname="tooltip.svg"
   inkscape:version="0.92.5 (2060ec1f9f, 2020-04-08)">
  <metadata
     id="metadata871">
    <rdf:RDF>
      <cc:Work
         rdf:about="">
        <dc:format>image/svg+xml</dc:format>
        <dc:type
           rdf:resource="http://purl.org/dc/dcmitype/StillImage" />
      </cc:Work>
    </rdf:RDF>
  </metadata>
  <defs
     id="defs869" />
  <sodipodi:namedview
     pagecolor="#ffffff"
     bordercolor="#666666"
     borderopacity="1"
     objecttolerance="10"
     gridtolerance="10"
     guidetolerance="10"
     inkscape:pageopacity="0"
     inkscape:pageshadow="2"
     inkscape:window-width="1428"
     inkscape:window-height="837"
     id="namedview867"
     showgrid="false"
     inkscape:zoom="24.958333"
     inkscape:cx="12"
     inkscape:cy="12"
     inkscape:window-x="0"
     inkscape:window-y="29"
     inkscape:window-maximized="1"
     inkscape:current-layer="svg865" />
  <path
     fill-rule="evenodd"
     clip-rule="evenodd"
     d="M2.25 12C2.25 6.61522 6.61522 2.25 12 2.25C17.3848 2.25 21.75 6.61522 21.75 12C21.75 17.3848 17.3848 21.75 12 21.75C6.61522 21.75 2.25 17.3848 2.25 12ZM11 7C11 6.44772 11.4447 6 11.9934 6H12.0066C12.5553 6 13 6.44772 13 7C13 7.55228 12.5553 8 12.0066 8H11.9934C11.4447 8 11 7.55228 11 7ZM10.8571 11C10.3838 11 10 11.4274 10 11.9545C10 12.4817 10.3838 12.9091 10.8571 12.9091H11.1429V17.0455C11.1429 17.5726 11.5266 18 12 18H13.1429C13.6162 18 14 17.5726 14 17.0455C14 16.5183 13.6162 16.0909 13.1429 16.0909H12.8571V11.9545C12.8571 11.4274 12.4734 11 12 11H10.8571Z"
     fill="white"
     id="path863"
     style="fill:#666666" />
</svg>
